<svg width="16" height="17" viewBox="0 0 16 17" fill="none" xmlns="http://www.w3.org/2000/svg">
<path fill-rule="evenodd" clip-rule="evenodd" d="M8.00004 15.1657C11.5347 15.1657 14.4 12.3003 14.4 8.76572C14.4 5.2311 11.5347 2.36572 8.00004 2.36572C4.46541 2.36572 1.60004 5.2311 1.60004 8.76572C1.60004 12.3003 4.46541 15.1657 8.00004 15.1657ZM10.9657 7.73141C11.2781 7.41899 11.2781 6.91246 10.9657 6.60004C10.6533 6.28762 10.1468 6.28762 9.83435 6.60004L7.20004 9.23435L6.16572 8.20004C5.8533 7.88762 5.34677 7.88762 5.03435 8.20004C4.72193 8.51246 4.72193 9.01899 5.03435 9.33141L6.63435 10.9314C6.94677 11.2438 7.4533 11.2438 7.76572 10.9314L10.9657 7.73141Z" fill="#B63636"/>
</svg>
