<svg width="195" height="48" viewBox="0 0 195 48" fill="none" xmlns="http://www.w3.org/2000/svg">
<g clip-path="url(#clip0_1504_12769)">
<path d="M6.85988 31.8973C6.85988 30.1626 6.24765 28.9318 5.09123 28.2218C3.92843 27.4863 2.23419 27.1228 0 27.1228V20.7178C0.988485 20.7263 1.97485 20.6477 2.94845 20.4776C3.8264 20.299 4.55766 20.0227 5.14438 19.6464C5.71196 19.2787 6.16687 18.7578 6.45598 18.1456C6.76209 17.5376 6.89389 16.8064 6.85775 15.9497V7.42958C6.85775 6.10735 7.02781 4.98069 7.36794 4.05385C7.70593 3.10576 8.31603 2.33835 9.19185 1.74739C10.0868 1.13942 11.29 0.693003 12.8099 0.408149C14.3277 0.123295 16.2813 0 18.5963 0V6.0287C17.882 6.04996 17.2294 6.10948 16.6406 6.21577C16.0687 6.32418 15.5798 6.52188 15.1674 6.82799C14.7741 7.09371 14.4723 7.46997 14.2576 7.9504C14.0429 8.43082 13.9345 9.05793 13.9345 9.82746V17.8395C13.826 21.1791 11.7385 23.1646 7.66342 23.7874V24.1105C9.71692 24.4167 11.29 25.0586 12.3593 26.0386C13.4285 27.0186 13.9685 28.3515 13.9111 30.0308V37.9557C13.9111 38.7231 14.0174 39.3502 14.2342 39.8328C14.4255 40.2856 14.7401 40.6746 15.144 40.9552C15.5883 41.2549 16.09 41.4547 16.6172 41.5461C17.2634 41.6567 17.9182 41.7205 18.5729 41.7332V47.7895C16.2324 47.7895 14.2852 47.6471 12.7865 47.3814C11.2857 47.1157 10.0613 46.6459 9.16847 46.0422C8.29052 45.4299 7.6868 44.6838 7.34455 43.7357C7.0023 42.7876 6.83437 41.6524 6.83437 40.3323V31.8909M187.338 40.5364C187.338 41.8586 187.168 42.9917 186.828 43.9398C186.488 44.8879 185.874 45.6553 184.979 46.2462C184.101 46.8542 182.906 47.3006 181.386 47.5855C179.866 47.8703 177.915 47.9936 175.6 47.9936V41.9564C176.314 41.9352 176.958 41.8756 177.528 41.7694C178.097 41.6631 178.582 41.4632 178.956 41.1571C179.364 40.8914 179.679 40.5151 179.896 40.0347C180.128 39.5522 180.242 38.9272 180.242 38.1577V30.1456C180.189 28.4663 180.708 27.1355 181.794 26.1534C182.88 25.1713 184.447 24.5293 186.484 24.2253V23.9022C182.43 23.2772 180.347 21.2939 180.24 17.9543V9.94225C180.24 9.17484 180.123 8.54774 179.894 8.06519C179.698 7.60602 179.373 7.21488 178.954 6.94278C178.523 6.64092 178.027 6.43897 177.506 6.35182C176.869 6.23915 176.225 6.17538 175.578 6.16475V0.144553C177.919 0.144553 179.866 0.28698 181.365 0.552701C182.866 0.818423 184.079 1.28822 184.957 1.89194C185.852 2.50416 186.469 3.25031 186.807 4.19841C187.145 5.12737 187.317 6.2519 187.317 7.57414V16.0942C187.296 16.9509 187.434 17.6864 187.719 18.2902C188.008 18.9024 188.463 19.4211 189.03 19.791C189.643 20.1672 190.342 20.4436 191.201 20.6221C192.079 20.7858 193.067 20.8624 194.175 20.8624V27.2673C191.94 27.2673 190.236 27.6351 189.056 28.3663C187.893 29.1019 187.315 30.3327 187.315 32.0418V40.4833" fill="#565689"/>
<path d="M29.0866 38.1506C28.5446 38.1506 28.0748 38.1145 27.673 38.0379C27.2691 37.9742 26.9205 37.8849 26.625 37.7658V35.2213C27.0055 35.3212 27.3945 35.3956 27.7857 35.4445C28.2278 35.5104 28.6742 35.5423 29.1207 35.5402C29.5182 35.5402 29.9136 35.4849 30.2962 35.3807C30.6937 35.2872 31.0636 35.1022 31.3782 34.8408C31.7077 34.575 31.9713 34.2073 32.1733 33.746C32.3752 33.2847 32.4751 32.6874 32.4751 31.9667V8.73838H35.4448V31.6479C35.4448 32.7596 35.2854 33.7226 34.9687 34.541C34.6944 35.3042 34.248 35.9951 33.6656 36.5584C33.1001 37.1068 32.4156 37.515 31.6652 37.7488C30.8914 38.0146 29.8349 38.1464 28.8932 38.1464M50.2147 29.5518H50.0872C49.7704 29.9919 49.4197 30.4064 49.0392 30.7912C48.3398 31.4672 47.464 31.9306 46.5116 32.1262C46.0014 32.2346 45.4169 32.2856 44.7472 32.2856C44.016 32.2856 43.3442 32.1772 42.7299 31.9667C42.1283 31.7839 41.5777 31.4629 41.1249 31.0271C40.6806 30.5935 40.3299 30.0514 40.0769 29.4073C39.8239 28.7504 39.7155 27.9618 39.7155 27.0881C39.7155 25.3534 40.3256 24.0142 41.5224 23.0831C42.7511 22.1499 44.5963 21.6418 47.1153 21.5568L50.0383 21.4441V20.3494C50.0383 19.6394 49.9596 19.0484 49.8002 18.5701C49.6514 18.0939 49.4303 17.7113 49.1306 17.4264C48.833 17.1224 48.4588 16.9035 48.0486 16.7908C47.5724 16.6569 47.0792 16.5931 46.586 16.6016C45.7506 16.5952 44.9194 16.7228 44.1244 16.9821C43.3761 17.2351 42.6491 17.5433 41.9476 17.9047L40.9315 15.7279C41.7159 15.3049 42.5896 14.9435 43.5525 14.6459C44.5368 14.3462 45.5593 14.1974 46.5882 14.2016C47.6702 14.2016 48.5991 14.3143 49.3857 14.5354C50.1807 14.7458 50.8312 15.0923 51.3371 15.5664C51.8707 16.0574 52.2703 16.6739 52.4978 17.3605C52.755 18.0897 52.8592 18.9761 52.8592 20.0135V31.9433H50.8099L50.2126 29.5476L50.2147 29.5518ZM45.5146 29.9409C46.1269 29.9472 46.7327 29.8452 47.3088 29.639C47.8466 29.4477 48.3334 29.1394 48.7373 28.7355C49.1412 28.3231 49.4537 27.8087 49.6769 27.1944C49.9129 26.5694 50.0255 25.8381 50.0255 25.0027V23.4296L47.7531 23.5423C46.8007 23.5848 45.9993 23.6911 45.3552 23.8611C44.7111 24.0312 44.1903 24.2693 43.8013 24.5775C43.4399 24.873 43.1444 25.2386 42.9743 25.6723C42.7979 26.1336 42.7107 26.6247 42.7192 27.1178C42.7192 28.0936 42.9722 28.8078 43.4824 29.2627C43.9926 29.7177 44.6792 29.9451 45.5168 29.9451M55.3081 14.5226H58.2948L61.4771 24.2289L61.8937 25.5788L62.3699 27.2645L62.7993 28.8844L63.0714 30.045H63.1841L63.4562 28.8844L63.8856 27.2645L64.3618 25.5788L64.7784 24.2289L67.9416 14.5226H70.8815L64.923 31.9667H61.2539L55.3145 14.5226H55.3081ZM82.7093 29.5518H82.5818C82.265 29.9919 81.9143 30.4064 81.5338 30.7912C80.8344 31.4672 79.9586 31.9306 79.0062 32.1262C78.496 32.2346 77.9114 32.2856 77.2418 32.2856C76.5106 32.2856 75.8388 32.1772 75.2245 31.9667C74.6229 31.7839 74.0723 31.4629 73.6195 31.0271C73.1752 30.5935 72.8245 30.0514 72.5715 29.4073C72.3185 28.7504 72.2101 27.9618 72.2101 27.0881C72.2101 25.3534 72.8202 24.0142 74.017 23.0831C75.2457 22.1499 77.0909 21.6418 79.6099 21.5568L82.5329 21.4441V20.3494C82.5329 19.6394 82.4542 19.0484 82.2948 18.5701C82.146 18.0939 81.9249 17.7113 81.6252 17.4264C81.3276 17.1224 80.9534 16.9035 80.5432 16.7908C80.067 16.6569 79.5738 16.5931 79.0806 16.6016C78.2452 16.5952 77.414 16.7228 76.619 16.9821C75.8707 17.2351 75.1437 17.5433 74.4422 17.9047L73.4261 15.7279C74.2105 15.3049 75.0842 14.9435 76.0471 14.6459C77.0314 14.3462 78.056 14.1974 79.0849 14.2016C80.1669 14.2016 81.0959 14.3143 81.8824 14.5354C82.6774 14.7458 83.3279 15.0923 83.8339 15.5664C84.3674 16.0574 84.7671 16.6739 84.9945 17.3605C85.2517 18.0897 85.3559 18.9761 85.3559 20.0135V31.9433H83.2769L82.7072 29.5476L82.7093 29.5518ZM78.0092 29.9494C78.6215 29.9557 79.2273 29.8537 79.8034 29.6475C80.3412 29.4562 80.828 29.1479 81.2319 28.744C81.6358 28.3274 81.9483 27.8172 82.1715 27.2029C82.4075 26.5779 82.5201 25.8466 82.5201 25.0112V23.4381L80.2477 23.5508C79.2953 23.5933 78.4939 23.6996 77.8498 23.8696C77.2057 24.0397 76.6849 24.2778 76.2959 24.586C75.9345 24.8815 75.639 25.2472 75.4689 25.6808C75.2925 26.1421 75.2053 26.6332 75.2138 27.1263C75.2138 28.1021 75.4668 28.8163 75.977 29.2712C76.4957 29.7262 77.1738 29.9536 78.0114 29.9536M103.198 25.7552C103.198 26.782 103.01 27.7045 102.641 28.5208C102.288 29.3159 101.756 30.0174 101.085 30.5701C100.406 31.1122 99.5816 31.5607 98.608 31.8562C97.6323 32.141 96.5354 32.2856 95.3173 32.2856C94.2098 32.292 93.1044 32.1963 92.0138 32.0007C90.9956 31.82 90.1453 31.5479 89.4565 31.1908V28.3635L90.681 28.8695L92.1265 29.2989L93.6996 29.6177C94.231 29.69 94.7688 29.7283 95.3045 29.7304C96.9988 29.7304 98.2509 29.4115 99.0544 28.7781C99.8686 28.1425 100.279 27.2326 100.279 26.0443C100.289 25.5363 100.209 25.0303 100.041 24.552C99.892 24.129 99.6241 23.7421 99.2308 23.3913C98.8695 23.03 98.3359 22.6686 97.6897 22.3603C96.8967 21.9458 96.0783 21.5802 95.2429 21.2656C94.3883 20.9382 93.5635 20.5343 92.7812 20.0581C92.0946 19.6138 91.5207 19.1143 91.0636 18.5658C90.6193 18.0153 90.2856 17.3903 90.0624 16.6909C89.8519 15.9915 89.7435 15.1986 89.7435 14.3079C89.7435 13.4172 89.9136 12.5456 90.2494 11.8144C90.5768 11.098 91.0657 10.4666 91.6801 9.97133C92.3285 9.44414 93.0725 9.05087 93.8718 8.81066C94.7306 8.54706 95.6723 8.41314 96.6991 8.41314C97.9596 8.41314 99.0927 8.53431 100.098 8.77877C101.106 9.01473 102.001 9.31447 102.783 9.68223L101.699 12.1588C101.012 11.8505 100.228 11.5869 99.3499 11.3637C98.4698 11.1299 97.56 11.013 96.6502 11.0151C95.3577 11.0151 94.3543 11.3169 93.6486 11.9185C92.9343 12.5138 92.5347 13.4045 92.5644 14.3334C92.5644 14.9371 92.6431 15.4622 92.8025 15.9065C92.9726 16.3593 93.2447 16.7653 93.5954 17.0969C93.9653 17.4456 94.4542 17.7793 95.0409 18.0982C95.6553 18.4064 96.4078 18.7338 97.2964 19.0824C98.1637 19.4183 99.0076 19.8094 99.8218 20.258C100.496 20.6193 101.112 21.0785 101.65 21.6248C102.137 22.1286 102.509 22.7302 102.745 23.3892C102.998 24.0588 103.134 24.8751 103.134 25.7871M113.897 32.2898C112.827 32.2898 111.824 32.1092 110.895 31.7967C109.97 31.465 109.137 30.9187 108.463 30.2066C107.776 29.4753 107.234 28.5485 106.843 27.4261C106.45 26.293 106.257 24.9325 106.257 23.3403C106.257 21.7481 106.437 20.2665 106.86 19.1143C107.264 17.9494 107.813 17.0055 108.512 16.287C109.203 15.5706 110.051 15.0264 110.989 14.6969C111.928 14.3653 112.94 14.2037 114.026 14.2037C114.838 14.2037 115.648 14.293 116.441 14.4737C117.128 14.6161 117.793 14.8415 118.429 15.1412L117.57 17.588C117.325 17.4796 117.058 17.3818 116.76 17.2861C116.465 17.1798 116.163 17.0906 115.857 17.014C115.538 16.929 115.223 16.8652 114.917 16.8248C114.628 16.7738 114.337 16.7462 114.043 16.7462C112.381 16.7462 111.15 17.2819 110.404 18.3511C109.641 19.4098 109.26 21.0636 109.26 23.3084C109.26 25.5533 109.622 27.1795 110.404 28.219C111.178 29.2457 112.347 29.7602 113.914 29.7602C114.696 29.7687 115.476 29.673 116.233 29.4753C116.885 29.2904 117.523 29.0565 118.14 28.7759V31.3502C117.557 31.6627 116.939 31.8966 116.297 32.0496C115.65 32.2091 114.815 32.2877 113.871 32.2877M129.725 14.2144L130.756 14.2611C131.086 14.276 131.415 14.3143 131.74 14.3738L131.379 17.0438L130.475 16.9162C130.167 16.8737 129.878 16.8525 129.602 16.8525C128.932 16.8525 128.326 16.9906 127.795 17.2649C127.236 17.537 126.747 17.9345 126.364 18.4255C125.948 18.9655 125.641 19.5798 125.461 20.2367C125.24 20.9956 125.133 21.7821 125.142 22.5729V31.9774H122.249V14.5332H124.598L124.946 17.7283H125.074L125.916 16.4082C126.209 15.9979 126.551 15.6259 126.934 15.2964C127.312 14.969 127.742 14.7054 128.205 14.5162C128.726 14.31 129.283 14.2059 129.842 14.2144M137.886 31.9752H134.993V14.5311H137.886V31.9752ZM135.246 8.43014C135.582 8.14104 136.011 7.98798 136.453 8.00074C136.674 7.99861 136.895 8.03688 137.104 8.1134C137.308 8.17293 137.493 8.28134 137.644 8.43227C137.809 8.5917 137.935 8.78727 138.009 9.0041C138.105 9.22731 138.154 9.49728 138.154 9.81402C138.154 10.4284 137.984 10.8897 137.648 11.1979C137.318 11.4934 136.925 11.6422 136.455 11.6422C135.985 11.6422 135.565 11.419 135.235 11.1214C134.916 10.8259 134.765 10.3625 134.77 9.77576C134.77 9.17842 134.95 8.71712 135.248 8.43014H135.246ZM151.11 32.292C150.536 32.2983 149.967 32.2303 149.412 32.0858C148.906 31.9476 148.443 31.7669 148.028 31.5437C147.637 31.3184 147.273 31.0463 146.946 30.7338C146.644 30.434 146.368 30.1088 146.119 29.7644H145.93L146.026 30.7954L146.089 31.6542L146.121 32.3366V39.7874H143.228V14.5311H145.577L145.994 16.8801H146.121C146.364 16.5102 146.64 16.1658 146.948 15.847C147.258 15.5154 147.618 15.2305 148.013 15.0052C148.447 14.7543 148.912 14.5609 149.397 14.4333C149.956 14.2781 150.532 14.2037 151.113 14.2101C152.107 14.2101 153.015 14.3993 153.829 14.782C154.643 15.1646 155.339 15.7343 155.908 16.4996C156.491 17.2521 156.939 18.1896 157.258 19.312C157.577 20.4344 157.734 21.7375 157.734 23.2192C157.734 24.7008 157.575 26.0273 157.258 27.1603C156.939 28.2806 156.491 29.2266 155.908 29.9876C155.336 30.7508 154.643 31.3247 153.829 31.7201C153.015 32.0815 151.908 32.292 150.913 32.292M150.556 16.6101C149.752 16.6101 149.068 16.7313 148.506 16.9758C147.956 17.2202 147.505 17.5901 147.156 18.0875C146.808 18.585 146.563 19.2057 146.393 19.9455C146.221 20.8085 146.132 21.6865 146.123 22.5665V23.217C146.115 24.1736 146.183 25.1302 146.33 26.0762C146.478 26.9031 146.723 27.6025 147.061 28.1722C147.395 28.7207 147.873 29.165 148.445 29.4583C149.016 29.7432 149.731 29.8877 150.59 29.8877C152.035 29.8877 153.066 29.3095 153.736 28.1552C154.414 26.9988 154.752 25.3428 154.754 23.1851C154.754 20.9807 154.414 19.3354 153.738 18.2448C153.062 17.1543 152.012 16.608 150.56 16.608M167.394 29.9217C167.583 29.9217 167.798 29.9026 168.029 29.8898L168.729 29.8112L169.333 29.6985L169.762 29.5859V31.7775C169.624 31.8413 169.449 31.9051 169.22 31.9667C168.99 32.0347 168.756 32.0879 168.52 32.1262C168.268 32.1814 168.002 32.2176 167.725 32.2388C167.458 32.2707 167.185 32.2856 166.916 32.2856C166.259 32.2856 165.651 32.2006 165.109 32.0326C164.556 31.8668 164.052 31.5671 163.644 31.1589C163.24 30.7423 162.925 30.1896 162.692 29.4902C162.456 28.7802 162.343 27.8895 162.343 26.8202V16.6973H159.881V15.4112L162.343 14.1719L163.582 10.5177H165.251V14.5226H169.637V16.6994H165.251V26.8223C165.251 27.8491 165.432 28.6229 165.742 29.1416C166.052 29.6603 166.631 29.9196 167.394 29.9196" fill="#010101"/>
<path d="M29.0866 38.1506C28.5446 38.1506 28.0748 38.1145 27.673 38.0379C27.2691 37.9742 26.9205 37.8849 26.625 37.7658V35.2213C27.0055 35.3212 27.3945 35.3956 27.7857 35.4445C28.2278 35.5104 28.6742 35.5423 29.1207 35.5402C29.5182 35.5402 29.9136 35.4849 30.2962 35.3807C30.6937 35.2872 31.0636 35.1022 31.3782 34.8408C31.7077 34.575 31.9713 34.2073 32.1733 33.746C32.3752 33.2847 32.4751 32.6874 32.4751 31.9667V8.73838H35.4448V31.6479C35.4448 32.7596 35.2854 33.7226 34.9687 34.541C34.6944 35.3042 34.248 35.9951 33.6656 36.5584C33.1001 37.1068 32.4156 37.515 31.6652 37.7488C30.8914 38.0146 29.8349 38.1463 28.8932 38.1463M45.5146 29.9409C46.1269 29.9472 46.7327 29.8452 47.3088 29.639C47.8466 29.4477 48.3334 29.1394 48.7373 28.7355C49.1412 28.3231 49.4537 27.8087 49.6769 27.1944C49.9129 26.5694 50.0255 25.8381 50.0255 25.0027V23.4296L47.7531 23.5423C46.8007 23.5848 45.9993 23.6911 45.3552 23.8611C44.7111 24.0312 44.1903 24.2693 43.8013 24.5775C43.4399 24.873 43.1444 25.2386 42.9743 25.6723C42.7979 26.1336 42.7107 26.6247 42.7192 27.1178C42.7192 28.0936 42.9722 28.8078 43.4824 29.2627C43.9926 29.7177 44.6792 29.9451 45.5168 29.9451M78.0092 29.9494C78.6215 29.9557 79.2273 29.8537 79.8034 29.6475C80.3412 29.4562 80.828 29.1479 81.2319 28.744C81.6358 28.3274 81.9483 27.8172 82.1715 27.2029C82.4075 26.5779 82.5201 25.8466 82.5201 25.0112V23.4381L80.2477 23.5508C79.2953 23.5933 78.4939 23.6996 77.8498 23.8696C77.2057 24.0397 76.6849 24.2778 76.2959 24.586C75.9345 24.8815 75.639 25.2471 75.4689 25.6808C75.2925 26.1421 75.2053 26.6332 75.2138 27.1263C75.2138 28.1021 75.4668 28.8163 75.977 29.2712C76.4957 29.7262 77.1738 29.9536 78.0114 29.9536M103.198 25.7552C103.198 26.782 103.01 27.7045 102.641 28.5208C102.288 29.3159 101.756 30.0174 101.085 30.5701C100.406 31.1122 99.5816 31.5607 98.608 31.8562C97.6323 32.141 96.5354 32.2856 95.3173 32.2856C94.2098 32.292 93.1044 32.1963 92.0138 32.0007C90.9956 31.82 90.1453 31.5479 89.4565 31.1908V28.3635L90.681 28.8695L92.1265 29.2989L93.6996 29.6177C94.231 29.69 94.7688 29.7283 95.3045 29.7304C96.9988 29.7304 98.2509 29.4115 99.0544 28.7781C99.8686 28.1425 100.279 27.2326 100.279 26.0443C100.289 25.5363 100.209 25.0303 100.041 24.552C99.892 24.129 99.6241 23.7421 99.2308 23.3913C98.8695 23.03 98.3359 22.6686 97.6897 22.3603C96.8967 21.9458 96.0783 21.5802 95.2429 21.2656C94.3883 20.9382 93.5635 20.5343 92.7812 20.0581C92.0946 19.6138 91.5207 19.1143 91.0636 18.5658C90.6193 18.0153 90.2856 17.3903 90.0624 16.6909C89.8519 15.9915 89.7435 15.1986 89.7435 14.3079C89.7435 13.4172 89.9136 12.5456 90.2494 11.8144C90.5768 11.098 91.0657 10.4666 91.6801 9.97133C92.3285 9.44414 93.0725 9.05087 93.8718 8.81066C94.7306 8.54706 95.6723 8.41314 96.699 8.41314C97.9596 8.41314 99.0927 8.53431 100.098 8.77877C101.106 9.01473 102.001 9.31447 102.783 9.68223L101.699 12.1588C101.012 11.8505 100.228 11.5869 99.3499 11.3637C98.4698 11.1299 97.56 11.013 96.6502 11.0151C95.3577 11.0151 94.3543 11.3169 93.6486 11.9185C92.9343 12.5138 92.5347 13.4045 92.5644 14.3334C92.5644 14.9371 92.6431 15.4622 92.8025 15.9065C92.9726 16.3593 93.2447 16.7653 93.5954 17.0969C93.9653 17.4456 94.4542 17.7793 95.0409 18.0982C95.6553 18.4064 96.4078 18.7338 97.2964 19.0824C98.1637 19.4183 99.0076 19.8094 99.8218 20.258C100.496 20.6193 101.112 21.0785 101.65 21.6248C102.137 22.1286 102.509 22.7302 102.745 23.3892C102.998 24.0588 103.134 24.8751 103.134 25.7871M113.897 32.2898C112.827 32.2898 111.824 32.1092 110.895 31.7967C109.97 31.465 109.137 30.9187 108.463 30.2066C107.776 29.4753 107.234 28.5485 106.843 27.4261C106.45 26.293 106.257 24.9325 106.257 23.3403C106.257 21.7481 106.437 20.2665 106.86 19.1143C107.264 17.9494 107.813 17.0055 108.512 16.287C109.203 15.5706 110.051 15.0264 110.989 14.6969C111.928 14.3653 112.94 14.2037 114.026 14.2037C114.838 14.2037 115.648 14.293 116.441 14.4737C117.128 14.6161 117.793 14.8415 118.429 15.1412L117.57 17.588C117.325 17.4796 117.058 17.3818 116.76 17.2861C116.465 17.1798 116.163 17.0906 115.857 17.014C115.538 16.929 115.223 16.8652 114.917 16.8248C114.628 16.7738 114.337 16.7462 114.043 16.7462C112.381 16.7462 111.15 17.2819 110.404 18.3511C109.641 19.4098 109.26 21.0636 109.26 23.3084C109.26 25.5533 109.622 27.1795 110.404 28.219C111.178 29.2457 112.347 29.7602 113.914 29.7602C114.696 29.7687 115.476 29.673 116.233 29.4753C116.885 29.2904 117.523 29.0565 118.14 28.7759V31.3502C117.557 31.6627 116.939 31.8966 116.297 32.0496C115.65 32.2091 114.815 32.2877 113.871 32.2877M129.725 14.2144L130.756 14.2611C131.086 14.276 131.415 14.3143 131.74 14.3738L131.379 17.0438L130.475 16.9162C130.167 16.8737 129.878 16.8525 129.602 16.8525C128.932 16.8525 128.326 16.9906 127.795 17.2649C127.236 17.537 126.747 17.9345 126.364 18.4255C125.948 18.9655 125.641 19.5798 125.461 20.2367C125.24 20.9956 125.133 21.7821 125.142 22.5729V31.9774H122.249V14.5332H124.598L124.946 17.7283H125.074L125.916 16.4082C126.209 15.9979 126.551 15.6259 126.934 15.2964C127.312 14.969 127.742 14.7054 128.205 14.5162C128.726 14.31 129.283 14.2059 129.842 14.2144M151.11 32.292C150.536 32.2983 149.967 32.2303 149.412 32.0858C148.906 31.9476 148.443 31.7669 148.028 31.5437C147.637 31.3184 147.273 31.0463 146.946 30.7338C146.644 30.434 146.368 30.1088 146.119 29.7644H145.93L146.026 30.7954L146.089 31.6542L146.121 32.3366V39.7874H143.228V14.5311H145.577L145.994 16.8801H146.121C146.364 16.5102 146.64 16.1658 146.948 15.847C147.258 15.5154 147.618 15.2305 148.013 15.0052C148.447 14.7543 148.912 14.5609 149.397 14.4333C149.956 14.2781 150.532 14.2037 151.113 14.2101C152.107 14.2101 153.015 14.3993 153.829 14.782C154.643 15.1646 155.339 15.7343 155.908 16.4996C156.491 17.2521 156.939 18.1896 157.258 19.312C157.577 20.4344 157.734 21.7375 157.734 23.2192C157.734 24.7008 157.575 26.0273 157.258 27.1603C156.939 28.2806 156.491 29.2266 155.908 29.9876C155.336 30.7508 154.643 31.3247 153.829 31.7201C153.015 32.0815 151.908 32.292 150.913 32.292M150.556 16.6101C149.752 16.6101 149.068 16.7313 148.506 16.9758C147.956 17.2202 147.505 17.5901 147.156 18.0875C146.808 18.585 146.563 19.2057 146.393 19.9455C146.221 20.8085 146.132 21.6865 146.123 22.5665V23.217C146.115 24.1736 146.183 25.1302 146.33 26.0762C146.478 26.9031 146.723 27.6025 147.061 28.1722C147.395 28.7207 147.873 29.165 148.445 29.4583C149.016 29.7432 149.731 29.8877 150.59 29.8877C152.035 29.8877 153.066 29.3095 153.736 28.1552C154.414 26.9988 154.752 25.3428 154.754 23.1851C154.754 20.9807 154.414 19.3354 153.738 18.2448C153.062 17.1543 152.012 16.608 150.56 16.608M167.394 29.9217C167.583 29.9217 167.798 29.9026 168.029 29.8898L168.729 29.8112L169.333 29.6985L169.762 29.5859V31.7775C169.624 31.8413 169.449 31.9051 169.22 31.9667C168.99 32.0348 168.756 32.0879 168.52 32.1262C168.268 32.1814 168.002 32.2176 167.725 32.2388C167.458 32.2707 167.185 32.2856 166.916 32.2856C166.259 32.2856 165.651 32.2006 165.109 32.0326C164.556 31.8668 164.052 31.5671 163.644 31.1589C163.24 30.7423 162.925 30.1896 162.692 29.4902C162.456 28.7802 162.343 27.8895 162.343 26.8202V16.6973H159.881V15.4112L162.343 14.1719L163.582 10.5177H165.251V14.5226H169.637V16.6994H165.251V26.8223C165.251 27.8491 165.432 28.6229 165.742 29.1416C166.052 29.6603 166.631 29.9196 167.394 29.9196M50.2147 29.5518H50.0872C49.7704 29.9919 49.4197 30.4064 49.0392 30.7912C48.3398 31.4672 47.464 31.9306 46.5116 32.1262C46.0014 32.2346 45.4169 32.2856 44.7472 32.2856C44.016 32.2856 43.3442 32.1772 42.7299 31.9667C42.1283 31.7839 41.5777 31.4629 41.1249 31.0271C40.6806 30.5935 40.3299 30.0514 40.0769 29.4073C39.8239 28.7504 39.7155 27.9618 39.7155 27.0881C39.7155 25.3534 40.3256 24.0142 41.5224 23.0831C42.7511 22.1499 44.5963 21.6418 47.1153 21.5568L50.0383 21.4441V20.3494C50.0383 19.6394 49.9596 19.0484 49.8002 18.5701C49.6514 18.0939 49.4303 17.7113 49.1306 17.4264C48.833 17.1224 48.4588 16.9035 48.0486 16.7908C47.5724 16.6569 47.0792 16.5931 46.586 16.6016C45.7506 16.5952 44.9194 16.7228 44.1244 16.9821C43.3761 17.2351 42.6491 17.5433 41.9476 17.9047L40.9315 15.7279C41.7159 15.3049 42.5896 14.9435 43.5525 14.6459C44.5368 14.3462 45.5593 14.1974 46.5882 14.2016C47.6702 14.2016 48.5991 14.3143 49.3857 14.5354C50.1807 14.7458 50.8312 15.0923 51.3371 15.5664C51.8707 16.0574 52.2704 16.6739 52.4978 17.3605C52.755 18.0897 52.8592 18.9761 52.8592 20.0135V31.9433H50.8099L50.2126 29.5476L50.2147 29.5518ZM55.3081 14.5226H58.2948L61.4771 24.2289L61.8937 25.5788L62.3699 27.2645L62.7993 28.8844L63.0714 30.045H63.1841L63.4562 28.8844L63.8856 27.2645L64.3618 25.5788L64.7784 24.2289L67.9416 14.5226H70.8815L64.923 31.9667H61.2539L55.3145 14.5226H55.3081ZM82.7093 29.5518H82.5818C82.265 29.9919 81.9143 30.4064 81.5338 30.7912C80.8344 31.4672 79.9586 31.9306 79.0062 32.1262C78.496 32.2346 77.9114 32.2856 77.2418 32.2856C76.5106 32.2856 75.8388 32.1772 75.2245 31.9667C74.6229 31.7839 74.0723 31.4629 73.6195 31.0271C73.1752 30.5935 72.8245 30.0514 72.5715 29.4073C72.3185 28.7504 72.2101 27.9618 72.2101 27.0881C72.2101 25.3534 72.8202 24.0142 74.017 23.0831C75.2457 22.1499 77.0909 21.6418 79.6099 21.5568L82.5329 21.4441V20.3494C82.5329 19.6394 82.4542 19.0484 82.2948 18.5701C82.146 18.0939 81.9249 17.7113 81.6252 17.4264C81.3276 17.1224 80.9534 16.9035 80.5432 16.7908C80.067 16.6569 79.5738 16.5931 79.0806 16.6016C78.2452 16.5952 77.414 16.7228 76.619 16.9821C75.8707 17.2351 75.1437 17.5433 74.4422 17.9047L73.4261 15.7279C74.2105 15.3049 75.0842 14.9435 76.0471 14.6459C77.0314 14.3462 78.056 14.1974 79.0849 14.2016C80.1669 14.2016 81.0959 14.3143 81.8824 14.5354C82.6774 14.7458 83.3279 15.0923 83.8339 15.5664C84.3674 16.0574 84.7671 16.6739 84.9945 17.3605C85.2517 18.0897 85.3559 18.9761 85.3559 20.0135V31.9433H83.2769L82.7072 29.5476L82.7093 29.5518ZM137.886 31.9752H134.993V14.5311H137.886V31.9752ZM135.246 8.43014C135.582 8.14104 136.011 7.98798 136.453 8.00074C136.674 7.99861 136.895 8.03688 137.104 8.1134C137.308 8.17293 137.493 8.28134 137.644 8.43227C137.809 8.5917 137.935 8.78727 138.009 9.0041C138.105 9.22731 138.154 9.49728 138.154 9.81402C138.154 10.4284 137.984 10.8897 137.648 11.1979C137.318 11.4934 136.925 11.6422 136.455 11.6422C135.985 11.6422 135.565 11.419 135.235 11.1214C134.916 10.8259 134.765 10.3625 134.77 9.77576C134.77 9.17842 134.95 8.71712 135.248 8.43014H135.246Z" stroke="#010101" stroke-width="0.212578"/>
</g>
<defs>
<clipPath id="clip0_1504_12769">
<rect width="194.177" height="48" fill="white"/>
</clipPath>
</defs>
</svg>
